<?xml version="1.0" encoding="UTF-8" standalone="no"?>
<!-- Generator: Adobe Illustrator 21.0.0, SVG Export Plug-In . SVG Version: 6.00 Build 0)  -->

<svg
   xmlns:dc="http://purl.org/dc/elements/1.1/"
   xmlns:cc="http://creativecommons.org/ns#"
   xmlns:rdf="http://www.w3.org/1999/02/22-rdf-syntax-ns#"
   xmlns:svg="http://www.w3.org/2000/svg"
   xmlns="http://www.w3.org/2000/svg"
   xmlns:sodipodi="http://sodipodi.sourceforge.net/DTD/sodipodi-0.dtd"
   xmlns:inkscape="http://www.inkscape.org/namespaces/inkscape"
   version="1.1"
   id="Capa_1"
   x="0px"
   y="0px"
   viewBox="0 0 127.4125 120.54083"
   xml:space="preserve"
   sodipodi:docname="Aerolab-Logo-2015-01.svg"
   width="127.4125"
   height="120.54083"
   inkscape:version="0.92.3 (2405546, 2018-03-11)"><metadata
   id="metadata3787"><rdf:RDF><cc:Work
       rdf:about=""><dc:format>image/svg+xml</dc:format><dc:type
         rdf:resource="http://purl.org/dc/dcmitype/StillImage" /><dc:title></dc:title></cc:Work></rdf:RDF></metadata><defs
   id="defs3785" /><sodipodi:namedview
   pagecolor="#ffffff"
   bordercolor="#666666"
   borderopacity="1"
   objecttolerance="10"
   gridtolerance="10"
   guidetolerance="10"
   inkscape:pageopacity="0"
   inkscape:pageshadow="2"
   inkscape:window-width="3706"
   inkscape:window-height="2049"
   id="namedview3783"
   showgrid="false"
   inkscape:zoom="2.9883333"
   inkscape:cx="194.95064"
   inkscape:cy="-42.47429"
   inkscape:window-x="134"
   inkscape:window-y="55"
   inkscape:window-maximized="1"
   inkscape:current-layer="Capa_1" />
<style
   type="text/css"
   id="style3770">
	.st0{fill:rgb(255, 79, 0);}
</style>
<path
   class="st0"
   d="M 127.1,45.64083 101.5,1.3408303 C 100.8,0.04083032 99.1,-0.35916968 97.8,0.34083032 L 53.5,25.94083 c -1,0.6 -1.5,1.7 -1.3,2.9 l 15.1,73.6 -2.2,2.5 c -3.8,4.3 -7,6.6 -13,6.6 -6.8,0 -10,-3.6 -15.1,-9.9 -6,-7.6 -13.6,-17 -31.8,-17 H 4.5 c -2.5,0 -4.5,2 -4.5,4.5 0,2.5 2,4.5 4.5,4.5 H 5 c 13.9,0 19.2,6.6 24.8,13.6 5,6.2 10.6,13.3 22.1,13.3 9.9,0 15.4,-4.6 19.8,-9.6 l 16.3,-18.4 c 0,0 0,0 0,0 l 38.8,-43.7 c 0.7,-0.9 0.8,-2.2 0.3,-3.2 z"
   id="path3772"
   inkscape:connector-curvature="0"
   style="fill:rgb(255, 79, 0)" />
<g
   id="XMLID_413_"
   transform="translate(-205.04936,-136.98488)">
	<path
   id="XMLID_414_"
   class="st0"
   d="m 461.5,320 c -15.7,0 -28.5,12.8 -28.5,28.5 0,15.7 12.8,28.5 28.5,28.5 15.7,0 28.5,-12.8 28.5,-28.5 0,-15.7 -12.8,-28.5 -28.5,-28.5 z m 0,47.5 c -10.5,0 -19,-8.5 -19,-19 0,-10.5 8.5,-19 19,-19 10.5,0 19,8.5 19,19 0,10.5 -8.5,19 -19,19 z"
   inkscape:connector-curvature="0"
   style="fill:rgb(255, 79, 0)" />
	<path
   id="XMLID_417_"
   class="st0"
   d="m 503.9,375.2 h 4.8 c 1.3,0 2.4,-1.1 2.4,-2.4 v -80.6 c 0,-1.3 -1.1,-2.4 -2.4,-2.4 h -4.8 c -1.3,0 -2.4,1.1 -2.4,2.4 v 80.6 c 0,1.4 1.1,2.4 2.4,2.4 z"
   inkscape:connector-curvature="0"
   style="fill:rgb(255, 79, 0)" />
	<path
   id="XMLID_418_"
   class="st0"
   d="m 309,327.3 c -5.6,-5 -13.1,-7.8 -21.2,-7.2 -13.9,1.1 -25.2,12.3 -26.2,26.2 -1.3,16.7 12,30.7 28.4,30.7 7.3,0 14,-2.8 19,-7.3 v 3.1 c 0,1.3 1.1,2.4 2.4,2.4 h 4.8 c 1.3,0 2.4,-1.1 2.4,-2.4 v -49.3 c 0,-1.3 -1.1,-2.4 -2.4,-2.4 h -4.8 c -1.3,0 -2.4,1.1 -2.4,2.4 z m -19,40.2 c -10.5,0 -19,-8.5 -19,-19 0,-10.5 8.5,-19 19,-19 10.5,0 19,8.5 19,19 0,10.5 -8.5,19 -19,19 z"
   inkscape:connector-curvature="0"
   style="fill:rgb(255, 79, 0)" />
	<path
   id="XMLID_421_"
   class="st0"
   d="m 570.1,327.5 c -5.6,-5 -13.1,-7.8 -21.2,-7.2 -13.9,1.1 -25.2,12.3 -26.2,26.2 -1.3,16.7 12,30.7 28.4,30.7 7.3,0 14,-2.8 19,-7.3 v 3.1 c 0,1.3 1.1,2.4 2.4,2.4 h 4.8 c 1.3,0 2.4,-1.1 2.4,-2.4 v -49.3 c 0,-1.3 -1.1,-2.4 -2.4,-2.4 h -4.8 c -1.3,0 -2.4,1.1 -2.4,2.4 z M 551,367.7 c -10.5,0 -19,-8.5 -19,-19 0,-10.5 8.5,-19 19,-19 10.5,0 19,8.5 19,19 0.1,10.5 -8.5,19 -19,19 z"
   inkscape:connector-curvature="0"
   style="fill:rgb(255, 79, 0)" />
	<path
   id="XMLID_424_"
   class="st0"
   d="m 601.9,292.3 c 0,-1.3 -1.1,-2.4 -2.4,-2.4 h -4.8 c -1.3,0 -2.4,1.1 -2.4,2.4 v 80.6 c 0,1.3 1.1,2.4 2.4,2.4 h 4.8 c 1.3,0 2.4,-1.1 2.4,-2.4 v -3.1 c 5,4.5 11.7,7.3 19,7.3 16.4,0 29.7,-14 28.4,-30.7 -1,-13.9 -12.3,-25.2 -26.2,-26.2 -8.2,-0.6 -15.7,2.2 -21.2,7.2 z m 0,56.2 c 0,-10.5 8.5,-19 19,-19 10.5,0 19,8.5 19,19 0,10.5 -8.5,19 -19,19 -10.5,0 -19,-8.5 -19,-19 z"
   inkscape:connector-curvature="0"
   style="fill:rgb(255, 79, 0)" />
	<path
   id="XMLID_427_"
   class="st0"
   d="m 405.6,321.2 h -4.8 c -1.3,0 -2.4,1.1 -2.4,2.4 v 49.3 c 0,1.3 1.1,2.4 2.4,2.4 h 4.8 c 1.3,0 2.4,-1.1 2.4,-2.4 v -24.4 c 0,-9.8 7.4,-17.8 16.9,-18.9 1.2,-0.1 2.1,-1.1 2.1,-2.4 v -4.8 c 0,-1.4 -1.2,-2.5 -2.6,-2.4 -6.3,0.6 -12,3.2 -16.4,7.2 v -3.7 c 0,-1.3 -1,-2.3 -2.4,-2.3 z"
   inkscape:connector-curvature="0"
   style="fill:rgb(255, 79, 0)" />
	<path
   id="XMLID_428_"
   class="st0"
   d="m 358.5,320 c -15.7,0 -28.6,12.8 -28.5,28.6 0,15.1 12.1,27.7 27.1,28.4 8.4,0.4 16.1,-2.8 21.5,-8.3 1.1,-1.1 1,-2.8 -0.2,-3.8 l -3.4,-2.8 c -1,-0.8 -2.5,-0.8 -3.4,0.1 -3.4,3.3 -8,5.3 -13.1,5.3 -8.8,0 -16.3,-6.1 -18.4,-14.3 h 44.4 c 1.4,0 2.6,-1.2 2.6,-2.6 v -2.2 0 C 387,332.8 374.2,320 358.5,320 Z m 0,9.5 c 8.8,0 16.3,6.1 18.4,14.3 h -36.8 c 2.1,-8.2 9.6,-14.3 18.4,-14.3 z"
   inkscape:connector-curvature="0"
   style="fill:rgb(255, 79, 0)" />
</g>
</svg>